<svg width="51" height="51" viewBox="0 0 51 51" fill="none" xmlns="http://www.w3.org/2000/svg">
<path d="M43.8767 5.68262L27.9492 17.5122L30.8946 10.5329L43.8767 5.68262Z" fill="#E2761B" stroke="#E2761B" stroke-linecap="round" stroke-linejoin="round"/>
<path d="M7.10742 5.68262L22.9069 17.6242L20.1055 10.5329L7.10742 5.68262Z" fill="#E4761B" stroke="#E4761B" stroke-linecap="round" stroke-linejoin="round"/>
<path d="M38.1482 33.1035L33.9062 39.6026L42.9825 42.0997L45.5917 33.2476L38.1482 33.1035Z" fill="#E4761B" stroke="#E4761B" stroke-linecap="round" stroke-linejoin="round"/>
<path d="M5.42773 33.2476L8.02095 42.0997L17.0972 39.6026L12.8552 33.1035L5.42773 33.2476Z" fill="#E4761B" stroke="#E4761B" stroke-linecap="round" stroke-linejoin="round"/>
<path d="M16.5858 22.1221L14.0566 25.9479L23.0689 26.3481L22.7487 16.6636L16.5858 22.1221Z" fill="#E4761B" stroke="#E4761B" stroke-linecap="round" stroke-linejoin="round"/>
<path d="M34.4022 22.1224L28.1593 16.5518L27.9512 26.3484L36.9474 25.9482L34.4022 22.1224Z" fill="#E4761B" stroke="#E4761B" stroke-linecap="round" stroke-linejoin="round"/>
<path d="M17.0977 39.6025L22.5082 36.9612L17.834 33.3115L17.0977 39.6025Z" fill="#E4761B" stroke="#E4761B" stroke-linecap="round" stroke-linejoin="round"/>
<path d="M28.4785 36.9612L33.9051 39.6025L33.1527 33.3115L28.4785 36.9612Z" fill="#E4761B" stroke="#E4761B" stroke-linecap="round" stroke-linejoin="round"/>
<path d="M33.9031 39.6027L28.4766 36.9614L28.9088 40.4991L28.8607 41.9878L33.9031 39.6027Z" fill="#D7C1B3" stroke="#D7C1B3" stroke-linecap="round" stroke-linejoin="round"/>
<path d="M17.0957 39.6027L22.1381 41.9878L22.1061 40.4991L22.5062 36.9614L17.0957 39.6027Z" fill="#D7C1B3" stroke="#D7C1B3" stroke-linecap="round" stroke-linejoin="round"/>
<path d="M22.2173 30.9743L17.7031 29.6456L20.8886 28.189L22.2173 30.9743Z" fill="#233447" stroke="#233447" stroke-linecap="round" stroke-linejoin="round"/>
<path d="M28.7656 30.9743L30.0943 28.189L33.2958 29.6456L28.7656 30.9743Z" fill="#233447" stroke="#233447" stroke-linecap="round" stroke-linejoin="round"/>
<path d="M17.0955 39.6026L17.8639 33.1035L12.8535 33.2476L17.0955 39.6026Z" fill="#CD6116" stroke="#CD6116" stroke-linecap="round" stroke-linejoin="round"/>
<path d="M33.1367 33.1035L33.9051 39.6026L38.1471 33.2476L33.1367 33.1035Z" fill="#CD6116" stroke="#CD6116" stroke-linecap="round" stroke-linejoin="round"/>
<path d="M36.9435 25.9482L27.9473 26.3484L28.7797 30.9746L30.1083 28.1893L33.3098 29.646L36.9435 25.9482Z" fill="#CD6116" stroke="#CD6116" stroke-linecap="round" stroke-linejoin="round"/>
<path d="M17.7044 29.646L20.9059 28.1893L22.2185 30.9746L23.0669 26.3484L14.0547 25.9482L17.7044 29.646Z" fill="#CD6116" stroke="#CD6116" stroke-linecap="round" stroke-linejoin="round"/>
<path d="M14.0547 25.9482L17.8325 33.3117L17.7044 29.646L14.0547 25.9482Z" fill="#E4751F" stroke="#E4751F" stroke-linecap="round" stroke-linejoin="round"/>
<path d="M33.3105 29.646L33.1504 33.3117L36.9442 25.9482L33.3105 29.646Z" fill="#E4751F" stroke="#E4751F" stroke-linecap="round" stroke-linejoin="round"/>
<path d="M23.0672 26.3486L22.2188 30.9748L23.2752 36.4334L23.5154 29.246L23.0672 26.3486Z" fill="#E4751F" stroke="#E4751F" stroke-linecap="round" stroke-linejoin="round"/>
<path d="M27.9478 26.3486L27.5156 29.23L27.7077 36.4334L28.7802 30.9748L27.9478 26.3486Z" fill="#E4751F" stroke="#E4751F" stroke-linecap="round" stroke-linejoin="round"/>
<path d="M28.7795 30.9746L27.707 36.4332L28.4754 36.9614L33.1496 33.3117L33.3097 29.646L28.7795 30.9746Z" fill="#F6851B" stroke="#F6851B" stroke-linecap="round" stroke-linejoin="round"/>
<path d="M17.7031 29.646L17.8312 33.3117L22.5054 36.9614L23.2738 36.4332L22.2173 30.9746L17.7031 29.646Z" fill="#F6851B" stroke="#F6851B" stroke-linecap="round" stroke-linejoin="round"/>
<path d="M28.8612 41.9877L28.9093 40.499L28.5091 40.1468H22.4742L22.1061 40.499L22.1381 41.9877L17.0957 39.6025L18.8565 41.0432L22.4262 43.5244H28.5571L32.1428 41.0432L33.9036 39.6025L28.8612 41.9877Z" fill="#C0AD9E" stroke="#C0AD9E" stroke-linecap="round" stroke-linejoin="round"/>
<path d="M28.4765 36.9614L27.7081 36.4331H23.274L22.5057 36.9614L22.1055 40.499L22.4736 40.1469H28.5085L28.9087 40.499L28.4765 36.9614Z" fill="#161616" stroke="#161616" stroke-linecap="round" stroke-linejoin="round"/>
<path d="M44.5462 18.2805L45.9068 11.7495L43.8739 5.68262L28.4746 17.112L34.3974 22.1224L42.7693 24.5715L44.6262 22.4105L43.8258 21.8342L45.1064 20.6657L44.114 19.8973L45.3946 18.9208L44.5462 18.2805Z" fill="#763D16" stroke="#763D16" stroke-linecap="round" stroke-linejoin="round"/>
<path d="M5.08984 11.7495L6.45048 18.2805L5.58608 18.9208L6.86668 19.8973L5.89022 20.6657L7.17082 21.8342L6.37045 22.4105L8.21131 24.5715L16.5833 22.1224L22.506 17.112L7.10679 5.68262L5.08984 11.7495Z" fill="#763D16" stroke="#763D16" stroke-linecap="round" stroke-linejoin="round"/>
<path d="M42.7709 24.5717L34.399 22.1226L36.9442 25.9484L33.1504 33.3118L38.1447 33.2478H45.5882L42.7709 24.5717Z" fill="#F6851B" stroke="#F6851B" stroke-linecap="round" stroke-linejoin="round"/>
<path d="M16.585 22.1226L8.21304 24.5717L5.42773 33.2478H12.8552L17.8336 33.3118L14.0558 25.9484L16.585 22.1226Z" fill="#F6851B" stroke="#F6851B" stroke-linecap="round" stroke-linejoin="round"/>
<path d="M27.9472 26.3482L28.4755 17.1118L30.9086 10.5327H20.1035L22.5046 17.1118L23.0649 26.3482L23.257 29.2615L23.273 36.4329H27.7071L27.7391 29.2615L27.9472 26.3482Z" fill="#F6851B" stroke="#F6851B" stroke-linecap="round" stroke-linejoin="round"/>
</svg>
